<svg width="138" height="38" viewBox="0 0 138 38" fill="none" xmlns="http://www.w3.org/2000/svg">
<path fill-rule="evenodd" clip-rule="evenodd" d="M130.948 29.435C127.041 29.435 125.697 26.956 125.193 25.276H125.109V37.962H123.008V8.97701H125.109V12.674H125.193C125.781 10.993 127.041 8.51501 130.948 8.51501C134.014 8.51501 137.837 10.153 137.837 18.765C137.837 27.418 134.014 29.435 130.948 29.435ZM130.654 10.531C126.915 10.531 125.193 15.32 125.193 18.807C125.193 21.243 126.033 27.418 130.654 27.418C133.72 27.418 135.317 24.31 135.317 18.723C135.317 13.094 133.72 10.531 130.654 10.531ZM113.98 24.058H113.896C113.266 25.99 112.048 29.435 107.217 29.435C106.167 29.435 102.008 28.805 102.008 23.764V8.97701H104.109V21.579C104.109 23.638 104.109 27.418 107.637 27.418C111.208 27.418 113.98 22.083 113.98 16.622V8.97701H116.081V28.973H113.98V24.058ZM92.9809 26.158H92.8969C92.141 27.25 90.3339 29.435 86.6799 29.435C82.7309 29.435 81.5969 26.326 81.5969 24.1C81.5969 17.673 90.502 17.715 92.9809 17.673C92.9809 16.622 92.9809 14.144 92.813 13.43C92.309 11.035 90.2499 10.531 88.6539 10.531C85.5029 10.531 84.8309 12.17 84.4949 13.766H81.9329C81.9329 11.666 83.5289 8.51501 88.8219 8.51501C94.9969 8.51501 95.0809 12.632 95.0809 15.32V28.973H92.9809V26.158ZM90.8799 19.689C87.1839 19.689 84.1169 21.117 84.1169 24.184C84.1169 25.906 85.5449 26.914 87.0999 26.914C89.1999 26.914 91.1319 25.654 92.0569 24.142C92.6869 23.008 92.9809 21.999 92.9809 19.689H90.8799ZM74.3329 16.37C74.3329 14.312 74.3329 10.531 70.7619 10.531C67.1919 10.531 64.4609 15.866 64.4609 21.327V28.973H62.3609V-0.0119934H64.4609V13.892H64.5449C65.1749 11.96 66.3519 8.51501 71.1829 8.51501C72.2749 8.51501 76.4329 9.14501 76.4329 14.186V28.973H74.3329V16.37ZM50.4759 24.52V10.993H47.2829V8.97701H50.4759V4.35601L52.5759 2.97001V8.97701H57.9109V10.993H52.5759V23.638C52.5759 24.982 52.5759 27.418 55.8529 27.418C57.0709 27.418 57.3649 27.208 57.9109 27.04V29.267C57.1969 29.393 56.4829 29.435 55.7689 29.435C50.5599 29.435 50.4759 26.032 50.4759 24.52ZM40.3539 -0.0119934H42.4549V28.973H40.3539V-0.0119934ZM31.1999 24.058H31.1159C30.4859 25.99 29.2679 29.435 24.4369 29.435C23.3869 29.435 19.2279 28.805 19.2279 23.764V8.97701H21.3289V21.579C21.3289 23.638 21.3289 27.418 24.8569 27.418C28.4279 27.418 31.1999 22.083 31.1999 16.622V8.97701H33.3009V28.973H31.1999V24.058ZM6.96494 29.435C2.09294 29.435 -0.00805664 25.57 -0.00805664 20.781V-0.0119934H2.09294V12.758H2.17694C2.63894 11.204 4.06694 8.51501 7.76394 8.51501C12.7199 8.51501 14.6949 13.808 14.6949 19.185C14.6949 24.898 12.3419 29.435 6.96494 29.435ZM7.51094 10.531C3.94094 10.531 2.17694 15.404 2.17694 19.479C2.17694 22.882 3.01694 27.418 6.96494 27.418C10.7879 27.418 12.1739 23.218 12.1739 19.143C12.1739 15.698 11.0819 10.531 7.51094 10.531Z" fill="black"/>
</svg>
