<svg width="39" height="39" viewBox="0 0 39 39" fill="none" xmlns="http://www.w3.org/2000/svg">
<circle cx="19.5" cy="19.5" r="19.5" fill="#E8E8E8"/>
<path d="M15.1158 22.5183C17.6 22.5183 18.2316 20.3201 18.2316 17.8872C18.2316 15.4116 17.6 13 15.1158 13C12.5053 13 12 15.4116 12 17.8872C12 20.3201 12.5053 22.5183 15.1158 22.5183ZM13.3474 17.8659C13.3474 16.2866 13.4526 13.8323 15.0737 13.8323C16.7368 13.8323 16.8842 16.2866 16.8842 17.8659C16.8842 19.2317 16.7368 21.686 15.0737 21.686C13.4526 21.686 13.3474 19.2317 13.3474 17.8659ZM24.8842 27C27.3474 27 28 24.8018 28 22.3689C28 19.8933 27.3474 17.4817 24.8842 17.4817C22.2737 17.4817 21.7474 19.8933 21.7474 22.3689C21.7474 24.8018 22.2737 27 24.8842 27ZM23.0947 22.3476C23.0947 20.7683 23.2 18.314 24.8211 18.314C26.5053 18.314 26.6526 20.7683 26.6526 22.3476C26.6526 23.7134 26.5053 26.1677 24.8211 26.1677C23.2 26.1677 23.0947 23.7134 23.0947 22.3476ZM17.2211 26.7652H18.4L22.7789 13.2348H21.6L17.2211 26.7652Z" fill="#FF0000"/>
</svg>
